<?xml version="1.0" standalone="no"?>
<!DOCTYPE svg PUBLIC "-//W3C//DTD SVG 20010904//EN"
 "http://www.w3.org/TR/2001/REC-SVG-20010904/DTD/svg10.dtd">
<svg version="1.0" xmlns="http://www.w3.org/2000/svg"
 width="500.000000pt" height="500.000000pt" viewBox="0 0 500.000000 500.000000"
 preserveAspectRatio="xMidYMid meet">

<g transform="translate(0.000000,500.000000) scale(0.100000,-0.100000)"
fill="#000000" stroke="none">
<path d="M0 2500 l0 -2500 2500 0 2500 0 0 2500 0 2500 -2500 0 -2500 0 0
-2500z m2342 1480 c14 -11 33 -37 41 -57 21 -52 58 -84 104 -89 51 -7 89 18
122 80 14 27 38 58 53 69 26 19 32 20 109 8 181 -28 374 -113 541 -239 108
-81 224 -198 233 -234 10 -40 -19 -83 -85 -128 -182 -124 -366 -312 -494 -505
-87 -131 -151 -244 -142 -252 3 -3 8 2 12 11 3 9 10 13 15 10 5 -3 8 -1 7 4
-4 13 115 152 199 233 198 192 471 385 600 423 46 14 85 -16 134 -105 98 -177
155 -349 179 -541 8 -71 8 -94 -3 -120 -18 -41 -52 -72 -68 -62 -7 4 -10 3 -6
-3 9 -14 -40 -23 -130 -23 -40 0 -117 -5 -171 -11 -65 -7 -98 -7 -100 0 -2 5
-10 7 -18 4 -7 -3 -11 -9 -8 -14 3 -5 -7 -9 -23 -8 -25 0 -26 1 -8 9 17 7 17
9 3 9 -10 1 -18 5 -18 9 0 10 -30 9 -45 0 -11 -6 -55 8 -55 18 0 3 9 4 20 1
11 -3 20 -1 20 5 0 6 11 7 26 4 19 -5 24 -3 18 5 -5 9 1 10 24 6 21 -4 32 -3
32 5 0 7 14 8 41 4 29 -5 38 -3 33 5 -5 8 6 10 35 7 22 -2 41 0 41 5 0 4 48 7
108 6 79 -1 118 3 146 15 l39 16 -6 78 c-7 97 -47 264 -61 259 -6 -3 -56 -17
-110 -32 -224 -61 -439 -169 -591 -298 -33 -28 -52 -42 -42 -30 10 12 14 23
10 26 -20 13 -47 -3 -111 -64 -38 -35 -25 -21 28 32 190 189 435 322 742 404
l67 18 -20 51 c-35 88 -113 226 -132 232 -23 7 -171 -75 -289 -159 -127 -91
-245 -196 -380 -337 -66 -69 -123 -124 -127 -124 -3 1 -17 5 -30 9 -18 5 -22
4 -16 -5 6 -10 4 -11 -6 -4 -8 5 -21 9 -29 10 -53 4 -53 -1 -4 96 131 261 345
520 569 688 52 39 98 76 101 82 7 12 -132 152 -183 186 l-26 16 -131 -134
c-144 -148 -226 -261 -304 -417 -54 -106 -120 -287 -142 -385 -7 -32 -17 -58
-21 -58 -4 0 -5 -10 -3 -22 2 -13 2 -17 -2 -10 -3 6 -10 12 -15 12 -6 0 -7 -4
-4 -10 3 -5 0 -10 -9 -10 -8 0 -17 -6 -19 -12 -17 -41 -2 34 28 151 44 164 89
284 160 419 79 151 155 252 293 388 l123 122 -28 20 c-37 26 -155 85 -223 112
-78 31 -219 62 -246 56 -31 -8 -38 -23 -73 -162 -80 -322 -111 -540 -118 -834
-3 -129 -9 -242 -14 -250 -7 -13 -8 -13 -9 1 0 9 -6 19 -14 22 -10 4 -14 57
-19 249 -6 266 -22 400 -83 689 -47 227 -62 271 -96 283 -56 20 -285 -55 -428
-140 l-77 -46 117 -116 c176 -176 276 -322 358 -520 57 -138 114 -339 106
-376 -4 -19 -9 -24 -14 -16 -4 7 -12 10 -17 7 -6 -4 -16 19 -23 51 -20 92 -78
259 -126 361 -73 156 -163 281 -315 436 l-137 139 -45 -37 c-93 -76 -157 -140
-157 -156 0 -9 35 -42 80 -74 168 -122 356 -323 482 -517 69 -106 173 -298
166 -306 -3 -2 -15 18 -28 45 -20 44 -26 49 -50 46 -25 -3 -32 4 -80 85 -127
214 -319 427 -525 583 -155 117 -160 144 -45 257 181 179 411 309 635 360 107
24 147 24 177 0z m-922 -700 c76 -38 230 -141 320 -213 96 -77 341 -318 334
-329 -3 -5 -2 -7 3 -6 5 2 22 -13 39 -32 53 -63 59 -76 10 -25 -36 38 -46 45
-43 28 3 -12 2 -22 -2 -21 -21 2 -22 -5 0 -29 13 -16 5 -10 -18 11 -23 22 -40
43 -37 48 3 5 2 7 -3 6 -4 -2 -33 24 -63 56 -177 189 -589 484 -645 462 -13
-5 -145 -257 -145 -278 0 -4 19 -12 43 -18 190 -49 446 -150 494 -196 11 -11
26 -20 33 -22 15 -4 70 -41 70 -48 0 -2 -11 3 -25 12 -14 9 -25 13 -25 9 0 -4
-6 -2 -14 4 -20 17 -58 23 -53 8 2 -7 11 -11 20 -11 9 1 15 -2 12 -6 -3 -4 13
-19 35 -34 22 -14 40 -28 40 -31 0 -3 -29 14 -64 37 -35 24 -62 47 -59 52 4 5
1 6 -5 3 -15 -10 -43 3 -35 16 3 5 1 7 -5 3 -6 -3 -25 2 -44 13 -58 34 -213
90 -326 120 l-111 29 -11 -34 c-7 -20 -20 -74 -30 -122 -10 -48 -19 -79 -19
-69 -1 17 -2 17 -17 2 -12 -12 -19 -13 -30 -4 -17 14 -19 64 -3 53 8 -4 9 0 4
15 -15 48 75 310 160 467 67 122 97 133 215 74z m957 -592 c-3 -8 -6 -5 -6 6
-1 11 2 17 5 13 3 -3 4 -12 1 -19z m-40 -20 c-3 -8 -6 -5 -6 6 -1 11 2 17 5
13 3 -3 4 -12 1 -19z m-496 -15 c13 -16 12 -17 -3 -4 -17 13 -22 21 -14 21 2
0 10 -8 17 -17z m546 -5 c-3 -8 -6 -5 -6 6 -1 11 2 17 5 13 3 -3 4 -12 1 -19z
m-1360 -70 c-2 -18 -4 -6 -4 27 0 33 2 48 4 33 2 -15 2 -42 0 -60z m1320 50
c-3 -8 -6 -5 -6 6 -1 11 2 17 5 13 3 -3 4 -12 1 -19z m300 0 c-3 -8 -6 -5 -6
6 -1 11 2 17 5 13 3 -3 4 -12 1 -19z m-1560 -35 c-3 -10 -5 -2 -5 17 0 19 2
27 5 18 2 -10 2 -26 0 -35z m798 27 c10 -11 16 -20 13 -20 -3 0 -13 9 -23 20
-10 11 -16 20 -13 20 3 0 13 -9 23 -20z m512 -22 c-3 -7 -5 -2 -5 12 0 14 2
19 5 13 2 -7 2 -19 0 -25z m200 10 c-3 -8 -6 -5 -6 6 -1 11 2 17 5 13 3 -3 4
-12 1 -19z m-762 -8 c10 -11 16 -20 13 -20 -3 0 -13 9 -23 20 -10 11 -16 20
-13 20 3 0 13 -9 23 -20z m290 0 c10 -11 16 -20 13 -20 -3 0 -13 9 -23 20 -10
11 -16 20 -13 20 3 0 13 -9 23 -20z m232 -22 c-3 -8 -6 -5 -6 6 -1 11 2 17 5
13 3 -3 4 -12 1 -19z m280 0 c-3 -8 -6 -5 -6 6 -1 11 2 17 5 13 3 -3 4 -12 1
-19z m243 19 c0 -2 -10 -12 -22 -23 l-23 -19 19 23 c18 21 26 27 26 19z m-885
-77 c38 -38 67 -70 64 -70 -2 0 -36 32 -74 70 -38 39 -67 70 -64 70 2 0 36
-31 74 -70z m-95 25 c19 -19 32 -35 29 -35 -3 0 -20 16 -39 35 -19 19 -32 35
-29 35 3 0 20 -16 39 -35z m687 3 c-3 -7 -5 -2 -5 12 0 14 2 19 5 13 2 -7 2
-19 0 -25z m-416 -5 c13 -16 12 -17 -3 -4 -10 7 -18 15 -18 17 0 8 8 3 21 -13z
m540 -10 c-12 -20 -14 -14 -5 12 4 9 9 14 11 11 3 -2 0 -13 -6 -23z m-1576 -1
c-3 -3 -11 0 -18 7 -9 10 -8 11 6 5 10 -3 15 -9 12 -12z m1492 -4 c-3 -8 -6
-5 -6 6 -1 11 2 17 5 13 3 -3 4 -12 1 -19z m203 8 c0 -2 -8 -10 -17 -17 -16
-13 -17 -12 -4 4 13 16 21 21 21 13z m-1537 -13 c-24 -2 -62 -2 -85 0 -24 2
-5 4 42 4 47 0 66 -2 43 -4z m-232 -20 c13 -16 12 -17 -3 -4 -10 7 -18 15 -18
17 0 8 8 3 21 -13z m367 10 c-10 -2 -26 -2 -35 0 -10 3 -2 5 17 5 19 0 27 -2
18 -5z m773 -10 c13 -16 12 -17 -3 -4 -10 7 -18 15 -18 17 0 8 8 3 21 -13z
m216 -5 c-3 -8 -6 -5 -6 6 -1 11 2 17 5 13 3 -3 4 -12 1 -19z m653 19 c0 -2
-19 -21 -42 -42 l-43 -40 40 43 c36 39 45 47 45 39z m-1547 -14 c-7 -2 -21 -2
-30 0 -10 3 -4 5 12 5 17 0 24 -2 18 -5z m54 -9 c-3 -3 -12 -4 -19 -1 -8 3 -5
6 6 6 11 1 17 -2 13 -5z m1223 2 c0 -2 -8 -10 -17 -17 -16 -13 -17 -12 -4 4
13 16 21 21 21 13z m-1173 -12 c-3 -3 -12 -4 -19 -1 -8 3 -5 6 6 6 11 1 17 -2
13 -5z m990 -16 c-3 -8 -6 -5 -6 6 -1 11 2 17 5 13 3 -3 4 -12 1 -19z m-950 6
c-3 -3 -12 -4 -19 -1 -8 3 -5 6 6 6 11 1 17 -2 13 -5z m-510 -10 c-3 -3 -12
-4 -19 -1 -8 3 -5 6 6 6 11 1 17 -2 13 -5z m216 -11 c-13 -2 -35 -2 -50 0 -16
2 -5 4 22 4 28 0 40 -2 28 -4z m1904 1 c-3 -3 -12 -4 -19 -1 -8 3 -5 6 6 6 11
1 17 -2 13 -5z m-1804 -11 c-7 -2 -19 -2 -25 0 -7 3 -2 5 12 5 14 0 19 -2 13
-5z m74 -9 c-3 -3 -12 -4 -19 -1 -8 3 -5 6 6 6 11 1 17 -2 13 -5z m488 -24
c10 -11 16 -20 13 -20 -3 0 -13 9 -23 20 -10 11 -16 20 -13 20 3 0 13 -9 23
-20z m1372 14 c-3 -3 -12 -4 -19 -1 -8 3 -5 6 6 6 11 1 17 -2 13 -5z m-40 -10
c-3 -3 -12 -4 -19 -1 -8 3 -5 6 6 6 11 1 17 -2 13 -5z m-397 -7 c0 -2 -10 -12
-22 -23 l-23 -19 19 23 c18 21 26 27 26 19z m160 -7 c-8 -5 -19 -10 -25 -10
-5 0 -3 5 5 10 8 5 20 10 25 10 6 0 3 -5 -5 -10z m197 4 c-3 -3 -12 -4 -19 -1
-8 3 -5 6 6 6 11 1 17 -2 13 -5z m-427 -8 c0 -2 -8 -10 -17 -17 -16 -13 -17
-12 -4 4 13 16 21 21 21 13z m20 -50 c0 -2 -8 -10 -17 -17 -16 -13 -17 -12 -4
4 13 16 21 21 21 13z m-30 -90 c0 -2 -8 -10 -17 -17 -16 -13 -17 -12 -4 4 13
16 21 21 21 13z m-20 -100 c0 -2 -8 -10 -17 -17 -16 -13 -17 -12 -4 4 13 16
21 21 21 13z"/>
<path d="M2420 3760 c0 -4 11 -61 24 -126 14 -66 32 -162 40 -214 8 -52 14
-90 15 -85 5 46 45 269 61 339 11 48 20 88 20 90 0 2 -18 -2 -40 -7 -28 -8
-52 -8 -80 0 -22 5 -40 7 -40 3z"/>
<path d="M2180 2731 c0 -6 4 -13 10 -16 6 -3 7 1 4 9 -7 18 -14 21 -14 7z"/>
<path d="M2146 2717 c3 -10 9 -15 12 -12 3 3 0 11 -7 18 -10 9 -11 8 -5 -6z"/>
<path d="M3090 2584 c0 -1 6 -7 14 -13 10 -9 15 -8 19 2 3 8 -3 13 -14 13 -11
0 -19 -1 -19 -2z"/>
<path d="M3439 2467 c7 -7 14 -8 21 -1 6 6 2 10 -12 11 -16 2 -18 -1 -9 -10z"/>
<path d="M3525 2460 c-3 -5 1 -10 10 -10 9 0 13 5 10 10 -3 6 -8 10 -10 10 -2
0 -7 -4 -10 -10z"/>
<path d="M2045 2709 c-4 -6 -3 -15 3 -21 6 -6 11 -4 15 6 7 18 -9 31 -18 15z"/>
</g>
</svg>
